PathFileType	4	(X/Y/Z)	/Users/itak/Documents/Research/Walk-IL/dataset/trc/00040_00004.trc
DataRate	CameraRate	NumFrames	NumMarkers	Units	OrigDataRate	OrigDataStartFrame	OrigNumFrames
100.000000	100.000000	4	54	mm	100.000000	243	487
Frame#	Time	RPSI			LPSI			L3			STRN			T10			C7			CLAV			RBAK			LBAK			LSHO			LUPA			LAEL			LAOL			LWTS			LWPS			LFRA			LIFD			LHPS			LHTS			RSHO			RUPA			RAEL			RAOL			RWTS			RWPS			RFRA			RIFD			RHTS			RHPS			RBHD			LFHD			RFHD			LBHD			LHIP			RHIP			RASI			LASI			LKNE			LTHI			LANK			LTIP			LTOE			LMT1			LMT5			LHEE			RKNE			RTHI			RANK			RTIP			RTOE			RMT1			RMT5			RHEE			*53			
		X1	Y1	Z1	X2	Y2	Z2	X3	Y3	Z3	X4	Y4	Z4	X5	Y5	Z5	X6	Y6	Z6	X7	Y7	Z7	X8	Y8	Z8	X9	Y9	Z9	X10	Y10	Z10	X11	Y11	Z11	X12	Y12	Z12	X13	Y13	Z13	X14	Y14	Z14	X15	Y15	Z15	X16	Y16	Z16	X17	Y17	Z17	X18	Y18	Z18	X19	Y19	Z19	X20	Y20	Z20	X21	Y21	Z21	X22	Y22	Z22	X23	Y23	Z23	X24	Y24	Z24	X25	Y25	Z25	X26	Y26	Z26	X27	Y27	Z27	X28	Y28	Z28	X29	Y29	Z29	X30	Y30	Z30	X31	Y31	Z31	X32	Y32	Z32	X33	Y33	Z33	X34	Y34	Z34	X35	Y35	Z35	X36	Y36	Z36	X37	Y37	Z37	X38	Y38	Z38	X39	Y39	Z39	X40	Y40	Z40	X41	Y41	Z41	X42	Y42	Z42	X43	Y43	Z43	X44	Y44	Z44	X45	Y45	Z45	X46	Y46	Z46	X47	Y47	Z47	X48	Y48	Z48	X49	Y49	Z49	X50	Y50	Z50	X51	Y51	Z51	X52	Y52	Z52	X53	Y53	Z53	X54	Y54	Z54	

244	2.43	-662.8534545898438	1064.536254882812	210.6660919189453	-641.41064453125	1062.151489257812	48.85183715820312	-654.9995727539062	1124.541015625	121.8113784790039	-426.4173583984375	1308.679809570312	175.5240173339844	-668.7628784179688	1268.126953125	112.8567047119141	-606.7991333007812	1532.381225585938	113.7535018920898	-460.6445617675781	1436.80029296875	162.5136260986328	-683.2160034179688	1398.229736328125	177.3935546875	-599.7401123046875	1492.926513671875	14.87158679962158	-481.7194519042969	1497.413208007812	-28.37964057922363	-494.6889343261719	1371.969604492188	-112.9195938110352	-492.3122253417969	1154.860473632812	-140.4048767089844	-568.6273803710938	1141.745361328125	-68.70872497558594	-411.5314025878906	908.1942138671875	-58.56320953369141	-472.1203308105469	889.303955078125	-120.1736679077148	-474.4497375488281	1039.58447265625	-141.9738006591797	-381.3290710449219	726.52685546875	-28.42922019958496	-434.6614379882812	801.8942260742188	-108.6441192626953	-381.3908081054688	816.7258911132812	-63.25346755981445	-583.1107788085938	1516.113891601562	303.8037109375	-617.7997436523438	1446.610473632812	367.7537536621094	-662.9234619140625	1178.3740234375	384.9373168945312	-639.0374755859375	1150.75537109375	291.7346496582031	-500.2223510742188	936.2976684570312	384.2068786621094	-574.2604370117188	910.319091796875	434.0055236816406	-648.5335083007812	1100.75732421875	403.7567749023438	-452.166015625	756.7625122070312	374.6416320800781	-455.3409729003906	833.4959716796875	406.2190551757812	-520.219482421875	817.6790161132812	443.4718627929688	-490.8767700195312	1709.105712890625	62.41080474853516	-456.3872985839844	1725.139526367188	277.4376525878906	-385.6143798828125	1727.030029296875	209.6315765380859	-589.77001953125	1704.629150390625	167.1912689208984	-527.646484375	957.326904296875	-46.44331741333008	-569.0325317382812	939.8627319335938	322.6533813476562	-457.5914916992188	979.7167358398438	267.9815063476562	-427.6590881347656	1001.874145507812	36.71575927734375	-398.1080932617188	515.0953979492188	-9.934207916259766	-445.9510803222656	654.8779296875	-45.22553634643555	-736.3003540039062	150.3094329833984	-127.9366226196289	-580.5465087890625	345.7590026855469	-87.05138397216797	-552.0458374023438	45.14779663085938	-58.03210830688477	-604.1092529296875	71.88745880126953	-42.67142868041992	-625.4934692382812	95.88147735595703	-143.6560974121094	-799.466064453125	181.1830596923828	-78.19271850585938	-497.3754272460938	512.9420166015625	231.0749664306641	-528.8445434570312	773.2555541992188	309.6321105957031	-590.4934692382812	40.55062103271484	109.8923873901367	-514.2804565429688	387.2234802246094	207.3989715576172	-356.6580200195312	43.69640731811523	139.5921173095703	-407.0857238769531	49.68904495239258	93.05934143066406	-456.1548156738281	41.26836776733398	176.3828887939453	-629.50634765625	43.51603698730469	49.8606071472168	nan	nan	nan	
245	2.44	-657.1812133789062	1064.768920898438	211.5871887207031	-633.223876953125	1062.370971679688	50.10699844360352	-648.0053100585938	1124.621337890625	122.9640426635742	-420.4593505859375	1308.987548828125	179.4329833984375	-661.9345092773438	1268.2353515625	114.0736770629883	-600.362548828125	1532.557861328125	115.5643463134766	-454.5926818847656	1437.076171875	165.9622039794922	-677.2400512695312	1398.364624023438	178.4798736572266	-592.1622924804688	1493.039428710938	16.85547065734863	-473.6988220214844	1497.595703125	-25.11971664428711	-485.7779235839844	1372.19921875	-109.8868942260742	-483.0445556640625	1155.19775390625	-137.6268157958984	-560.0687255859375	1141.928833007812	-66.67713928222656	-403.0201110839844	908.4041137695312	-55.42966842651367	-463.2065124511719	889.6024169921875	-117.7198638916016	-465.1808471679688	1039.911499023438	-139.2005767822266	-372.9910583496094	726.7643432617188	-25.28384399414062	-425.6365966796875	802.166015625	-105.8989791870117	-372.7756958007812	817.0142822265625	-59.98634719848633	-578.6337890625	1516.443237304688	305.8963623046875	-613.9083251953125	1446.949340820312	369.517822265625	-658.6869506835938	1178.530029296875	386.4134521484375	-633.9572143554688	1150.993774414062	293.4237060546875	-493.6622314453125	938.0175170898438	386.9404602050781	-567.776123046875	911.217529296875	436.2242736816406	-643.8829956054688	1100.925903320312	405.3779602050781	-443.3777160644531	759.1838989257812	377.7667846679688	-447.8170471191406	835.7408447265625	409.2870483398438	-512.8153686523438	819.1821899414062	446.0826110839844	-483.8725891113281	1709.517944335938	65.61932373046875	-451.3204650878906	1725.285400390625	280.9232177734375	-379.8756408691406	1727.139770507812	213.8127746582031	-583.6639404296875	1704.998779296875	169.4682159423828	-517.5939331054688	957.772705078125	-43.44377899169922	-565.2681884765625	939.7356567382812	324.9117126464844	-452.8791809082031	979.7312622070312	272.1831970214844	-419.2916564941406	1002.425598144531	41.480712890625	-385.0291442871094	516.8561401367188	-2.3918297290802	-433.2225341796875	655.8150024414062	-39.75698471069336	-708.484375	142.0488586425781	-127.4393920898438	-560.5487060546875	342.5943298339844	-83.46033477783203	-521.9152221679688	44.34309768676758	-53.00133514404297	-575.429443359375	68.95355987548828	-38.98823928833008	-595.2374877929688	92.32239532470703	-140.357666015625	-774.1932983398438	170.3236846923828	-79.34751129150391	-496.8572387695312	512.2736206054688	232.6027374267578	-526.2849731445312	772.7178955078125	311.853515625	-590.5340576171875	40.51535034179688	109.9003295898438	-514.1663818359375	386.9270629882812	208.3287353515625	-356.6764831542969	43.67691421508789	139.6427001953125	-407.0713195800781	49.74177551269531	93.17558288574219	-456.2072448730469	41.22134780883789	176.4732513427734	-629.401123046875	43.46779632568359	49.85151672363281	nan	nan	nan	
246	2.45	-651.5082397460938	1064.931884765625	212.4817352294922	-625.0215454101562	1062.512573242188	51.36553192138672	-640.9967651367188	1124.628051757812	124.0913314819336	-414.5429992675781	1309.201782226562	183.3670959472656	-655.1026611328125	1268.266235351562	115.2604751586914	-593.9291381835938	1532.65966796875	117.3694458007812	-448.5585632324219	1437.2529296875	169.4320526123047	-671.2718505859375	1398.415771484375	179.5292816162109	-584.5501098632812	1493.078857421875	18.85037803649902	-465.6661376953125	1497.701171875	-21.82208633422852	-476.8165893554688	1372.34912109375	-106.7927093505859	-473.7599487304688	1155.453369140625	-134.7783508300781	-551.466796875	1142.041870117188	-64.56424713134766	-394.5988464355469	908.4749755859375	-52.29111862182617	-454.3833312988281	889.7994995117188	-115.2283630371094	-455.9187316894531	1040.146728515625	-136.360107421875	-364.7899169921875	726.8510131835938	-22.16628456115723	-416.7548828125	802.3223876953125	-103.1529235839844	-364.3255615234375	817.1240234375	-56.74360656738281	-574.1815185546875	1516.667602539062	307.9829406738281	-610.0791625976562	1447.179565429688	371.2409973144531	-654.55810546875	1178.59130859375	387.8122253417969	-628.9826049804688	1151.141235351562	295.0391540527344	-487.3182678222656	939.6054077148438	389.6579895019531	-561.5244750976562	912.0184936523438	438.4013366699219	-639.3651123046875	1101.00439453125	406.9274597167969	-434.9129028320312	761.4854125976562	380.8913269042969	-440.5602722167969	837.8394165039062	412.3609313964844	-505.6884155273438	820.5639038085938	448.6783752441406	-476.8763122558594	1709.849365234375	68.86257934570312	-446.3082580566406	1725.3505859375	284.4495849609375	-374.1915893554688	1727.1884765625	218.0383911132812	-577.5970458984375	1705.265380859375	171.747802734375	-507.65478515625	958.1170654296875	-40.40904235839844	-561.4967041015625	939.6026611328125	327.1361694335938	-448.2330017089844	979.68017578125	276.3894653320312	-410.9587707519531	1002.861328125	46.31394577026367	-372.1468200683594	518.5587158203125	5.451243877410889	-420.6034545898438	656.664306640625	-34.06906509399414	-680.0491333007812	133.8713836669922	-126.2424240112305	-540.2321166992188	339.3556213378906	-79.42455291748047	-492.0054931640625	43.70870208740234	-46.30794525146484	-546.8346557617188	66.25240325927734	-33.93238830566406	-564.6705932617188	88.73388671875	-135.7821502685547	-748.2466430664062	159.6758880615234	-80.15775299072266	-496.3111877441406	511.6186828613281	234.0802459716797	-523.7764282226562	772.1447143554688	314.0167846679688	-590.5684204101562	40.50358581542969	109.9084777832031	-514.0328979492188	386.6460266113281	209.1933746337891	-356.6958618164062	43.65590286254883	139.6876220703125	-407.0602111816406	49.78863906860352	93.28620147705078	-456.2596130371094	41.17714309692383	176.5653686523438	-629.2533569335938	43.44105529785156	49.88368988037109	nan	nan	nan	
247	2.46	-645.8200073242188	1065.02099609375	213.3648681640625	-616.8132934570312	1062.573608398438	52.6395378112793	-633.9688110351562	1124.562377929688	125.2053527832031	-408.6654357910156	1309.324340820312	187.322509765625	-648.2659301757812	1268.221313476562	116.4189376831055	-587.4849243164062	1532.688598632812	119.1769638061523	-442.5364685058594	1437.33447265625	172.921875	-665.3052368164062	1398.38427734375	180.5458984375	-576.9039306640625	1493.046997070312	20.85898590087891	-457.622314453125	1497.731201171875	-18.49011039733887	-467.8087768554688	1372.420043945312	-103.6372299194336	-464.457763671875	1155.62548828125	-131.8574066162109	-542.8121948242188	1142.085693359375	-62.36636734008789	-386.2676086425781	908.407470703125	-49.1424446105957	-445.6145629882812	889.89306640625	-112.6831665039062	-446.6688232421875	1040.290893554688	-133.4536285400391	-356.7214965820312	726.778076171875	-19.06671714782715	-408.011962890625	802.3653564453125	-100.3975601196289	-356.0394592285156	817.0518188476562	-53.51879501342773	-569.7469482421875	1516.786743164062	310.0632019042969	-606.2957153320312	1447.300659179688	372.9269714355469	-650.5259399414062	1178.5556640625	389.1278686523438	-624.0938110351562	1151.19677734375	296.5822143554688	-481.1901550292969	941.049560546875	392.367919921875	-555.5067138671875	912.7155151367188	440.5425415039062	-634.9695434570312	1100.988891601562	408.4031372070312	-426.7887878417969	763.6370849609375	384.0194396972656	-433.5741577148438	839.7783203125	415.4510192871094	-498.83935546875	821.8130493164062	451.2640380859375	-469.8823547363281	1710.101440429688	72.14347076416016	-441.3471984863281	1725.329467773438	288.0210266113281	-368.5574645996094	1727.175659179688	222.3056182861328	-571.5682373046875	1705.436889648438	174.0416412353516	-497.8123474121094	958.3605346679688	-37.33016586303711	-557.7423095703125	939.4533081054688	329.3359680175781	-443.6433715820312	979.5598754882812	280.5922546386719	-402.6763916015625	1003.18701171875	51.19895553588867	-359.4453125	520.2137451171875	13.59829902648926	-408.08984375	657.4332885742188	-28.17849731445312	-651.0805053710938	125.8961029052734	-124.2651672363281	-519.620849609375	336.1132202148438	-74.89899444580078	-462.4602966308594	43.26860046386719	-37.97332000732422	-518.4485473632812	63.81953048706055	-27.49860763549805	-533.9072265625	85.19902801513672	-129.8905639648438	-721.6868286132812	149.3627624511719	-80.53319549560547	-495.7319030761719	510.9737548828125	235.5179595947266	-521.3074340820312	771.5399780273438	316.1156616210938	-590.5968017578125	40.50906753540039	109.9132614135742	-513.8575439453125	386.3804626464844	209.9996795654297	-356.7148742675781	43.63302612304688	139.7267608642578	-407.0536499023438	49.83013153076172	93.38679504394531	-456.3099365234375	41.13520050048828	176.6562194824219	-629.062744140625	43.42576599121094	49.94911956787109	nan	nan	nan	
